<svg id="exportSvg" xmlns="http://www.w3.org/2000/svg" viewBox="0 0 537.51 651.24"><defs><style>.cls-1,.cls-2,.cls-6{isolation:isolate;}.cls-2{font-size:14px;font-family:SourceSansPro-SemiboldIt, Source Sans Pro;font-weight:600;font-style:italic;}.cls-2,.cls-6{fill:#181818;}.cls-3{fill:#00527a;}.cls-4{fill:#0078a2;}.cls-5{fill:#18a1cd;}.cls-6{font-size:8.88px;}.cls-12,.cls-13,.cls-6{font-family:SourceSansPro-Regular, Source Sans Pro;}.cls-7{letter-spacing:-0.2em;}.cls-8{opacity:0.8;}.cls-10,.cls-11,.cls-9{fill:none;stroke:#fb8500;stroke-width:2px;}.cls-10{stroke-dasharray:4.98 4.98;}.cls-11{stroke-dasharray:5 5;}.cls-12,.cls-13{font-size:12px;}.cls-12{fill:#fff;}.cls-14{letter-spacing:-0.01em;}.cls-15{letter-spacing:-0.02em;}.cls-16{letter-spacing:0em;}.cls-17{letter-spacing:0.02em;}.cls-18{letter-spacing:-0.01em;}.cls-19{letter-spacing:-0.01em;}.cls-20{letter-spacing:0em;}.cls-21{letter-spacing:-0.07em;}</style></defs><g class="cls-1"><text class="cls-2" transform="translate(66.06 53.25)">NEW ENGLAND</text></g><rect class="cls-3" x="66.06" y="87.22" width="41.84" height="14.8"/><rect class="cls-4" x="254.11" y="87.22" width="45.22" height="14.8"/><rect class="cls-5" x="442.16" y="87.22" width="24.23" height="14.8"/><rect class="cls-3" x="66.06" y="104.98" width="52.97" height="14.8"/><rect class="cls-4" x="254.11" y="104.98" width="45.08" height="14.8"/><rect class="cls-5" x="442.16" y="104.98" width="25.5" height="14.8"/><rect class="cls-3" x="66.06" y="122.74" width="63.25" height="14.8"/><rect class="cls-4" x="254.11" y="122.74" width="46.92" height="14.8"/><rect class="cls-5" x="442.16" y="122.74" width="26.2" height="14.8"/><rect class="cls-3" x="66.06" y="140.5" width="77.77" height="14.8"/><rect class="cls-4" x="254.11" y="140.5" width="53.67" height="14.8"/><rect class="cls-5" x="442.16" y="140.5" width="30.58" height="14.8"/><rect class="cls-3" x="66.06" y="158.26" width="83.11" height="14.8"/><rect class="cls-4" x="254.11" y="158.26" width="53.95" height="14.8"/><rect class="cls-5" x="442.16" y="158.26" width="26.63" height="14.8"/><rect class="cls-3" x="66.06" y="176.03" width="86.22" height="14.8"/><rect class="cls-4" x="254.11" y="176.03" width="52.27" height="14.8"/><rect class="cls-5" x="442.16" y="176.03" width="28.75" height="14.8"/><rect class="cls-3" x="66.06" y="193.79" width="88.33" height="14.8"/><rect class="cls-4" x="254.11" y="193.79" width="47.63" height="14.8"/><rect class="cls-5" x="442.16" y="193.79" width="28.61" height="14.8"/><rect class="cls-3" x="66.06" y="211.55" width="87.91" height="14.8"/><rect class="cls-4" x="254.11" y="211.55" width="49.31" height="14.8"/><rect class="cls-5" x="442.16" y="211.55" width="25.64" height="14.8"/><rect class="cls-3" x="66.06" y="229.31" width="87.77" height="14.8"/><rect class="cls-4" x="254.11" y="229.31" width="56.5" height="14.8"/><rect class="cls-5" x="442.16" y="229.31" width="25.78" height="14.8"/><rect class="cls-3" x="66.06" y="247.07" width="90.3" height="14.8"/><rect class="cls-4" x="254.11" y="247.07" width="60.72" height="14.8"/><rect class="cls-5" x="442.16" y="247.07" width="29.31" height="14.8"/><rect class="cls-3" x="66.06" y="264.83" width="98.61" height="14.8"/><rect class="cls-4" x="254.11" y="264.83" width="71.42" height="14.8"/><rect class="cls-5" x="442.16" y="264.83" width="29.45" height="14.8"/><rect class="cls-3" x="66.06" y="282.59" width="96.78" height="14.8"/><rect class="cls-4" x="254.11" y="282.59" width="74.66" height="14.8"/><rect class="cls-5" x="442.16" y="282.59" width="28.61" height="14.8"/><rect class="cls-3" x="66.06" y="300.35" width="92.55" height="14.8"/><rect class="cls-4" x="254.11" y="300.35" width="73.11" height="14.8"/><rect class="cls-5" x="442.16" y="300.35" width="34.52" height="14.8"/><rect class="cls-3" x="66.06" y="318.12" width="87.63" height="14.8"/><rect class="cls-4" x="254.11" y="318.12" width="68.33" height="14.8"/><rect class="cls-5" x="442.16" y="318.12" width="42.27" height="14.8"/><rect class="cls-3" x="66.06" y="335.88" width="89.31" height="14.8"/><rect class="cls-4" x="254.11" y="335.88" width="75.8" height="14.8"/><rect class="cls-5" x="442.16" y="335.88" width="45.22" height="14.8"/><rect class="cls-3" x="66.06" y="353.64" width="99.31" height="14.8"/><rect class="cls-4" x="254.11" y="353.64" width="82.55" height="14.8"/><rect class="cls-5" x="442.16" y="353.64" width="46.92" height="14.8"/><rect class="cls-3" x="66.06" y="371.4" width="100.16" height="14.8"/><rect class="cls-4" x="254.11" y="371.4" width="78.05" height="14.8"/><rect class="cls-5" x="442.16" y="371.4" width="46.63" height="14.8"/><rect class="cls-3" x="66.06" y="389.16" width="106.08" height="14.8"/><rect class="cls-4" x="254.11" y="389.16" width="76.36" height="14.8"/><rect class="cls-5" x="442.16" y="389.16" width="42.55" height="14.8"/><rect class="cls-3" x="66.06" y="406.92" width="106.08" height="14.8"/><rect class="cls-4" x="254.11" y="406.92" width="70.16" height="14.8"/><rect class="cls-5" x="442.16" y="406.92" width="43.11" height="14.8"/><rect class="cls-3" x="66.06" y="424.68" width="117.06" height="14.8"/><rect class="cls-4" x="254.11" y="424.68" width="60.44" height="14.8"/><rect class="cls-5" x="442.16" y="424.68" width="41.42" height="14.8"/><rect class="cls-3" x="66.06" y="442.45" width="121.86" height="14.8"/><rect class="cls-4" x="254.11" y="442.45" width="65.22" height="14.8"/><rect class="cls-5" x="442.16" y="442.45" width="53.11" height="14.8"/><rect class="cls-3" x="66.06" y="460.21" width="120.3" height="14.8"/><rect class="cls-4" x="254.11" y="460.21" width="55.92" height="14.8"/><rect class="cls-5" x="442.16" y="460.21" width="50.44" height="14.8"/><rect class="cls-3" x="66.06" y="477.97" width="121.28" height="14.8"/><rect class="cls-4" x="254.11" y="477.97" width="53.25" height="14.8"/><rect class="cls-5" x="442.16" y="477.97" width="49.88" height="14.8"/><rect class="cls-3" x="66.06" y="495.73" width="128.75" height="14.8"/><rect class="cls-4" x="254.11" y="495.73" width="58.61" height="14.8"/><rect class="cls-5" x="442.16" y="495.73" width="51" height="14.8"/><rect class="cls-3" x="66.06" y="513.49" width="123.13" height="14.8"/><rect class="cls-4" x="254.11" y="513.49" width="69.88" height="14.8"/><rect class="cls-5" x="442.16" y="513.49" width="54.38" height="14.8"/><rect class="cls-3" x="66.06" y="531.25" width="123.13" height="14.8"/><rect class="cls-4" x="254.11" y="531.25" width="70.02" height="14.8"/><rect class="cls-5" x="442.16" y="531.25" width="50.58" height="14.8"/><rect class="cls-3" x="66.06" y="549.01" width="129.03" height="14.8"/><rect class="cls-4" x="254.11" y="549.01" width="68.47" height="14.8"/><rect class="cls-5" x="442.16" y="549.01" width="41.56" height="14.8"/><rect class="cls-3" x="66.06" y="566.77" width="138.05" height="14.8"/><rect class="cls-4" x="254.11" y="566.77" width="76.08" height="14.8"/><rect class="cls-5" x="442.16" y="566.77" width="43.53" height="14.8"/><rect class="cls-3" x="66.06" y="584.54" width="147.48" height="14.8"/><rect class="cls-4" x="254.11" y="584.54" width="71.56" height="14.8"/><rect class="cls-5" x="442.16" y="584.54" width="39.03" height="14.8"/><g class="cls-1"><text class="cls-6" transform="translate(35.19 98.43) scale(1.04 1)">1992 <tspan class="cls-7" x="19.45" y="0">​</tspan></text></g><g class="cls-1"><text class="cls-6" transform="translate(35.19 116.19) scale(1.04 1)">1993 <tspan class="cls-7" x="19.45" y="0">​</tspan></text></g><g class="cls-1"><text class="cls-6" transform="translate(35.19 133.95) scale(1.04 1)">1994 <tspan class="cls-7" x="19.45" y="0">​</tspan></text></g><g class="cls-1"><text class="cls-6" transform="translate(35.19 151.72) scale(1.04 1)">1995 <tspan class="cls-7" x="19.45" y="0">​</tspan></text></g><g class="cls-1"><text class="cls-6" transform="translate(35.19 169.48) scale(1.04 1)">1996 <tspan class="cls-7" x="19.45" y="0">​</tspan></text></g><g class="cls-1"><text class="cls-6" transform="translate(35.19 187.24) scale(1.04 1)">1997 <tspan class="cls-7" x="19.45" y="0">​</tspan></text></g><g class="cls-1"><text class="cls-6" transform="translate(35.19 205) scale(1.04 1)">1998 <tspan class="cls-7" x="19.45" y="0">​</tspan></text></g><g class="cls-1"><text class="cls-6" transform="translate(35.19 222.76) scale(1.04 1)">1999 <tspan class="cls-7" x="19.45" y="0">​</tspan></text></g><g class="cls-1"><text class="cls-6" transform="translate(35.19 240.52) scale(1.04 1)">2000 <tspan class="cls-7" x="19.45" y="0">​</tspan></text></g><g class="cls-1"><text class="cls-6" transform="translate(35.19 258.28) scale(1.04 1)">2001 <tspan class="cls-7" x="19.45" y="0">​</tspan></text></g><g class="cls-1"><text class="cls-6" transform="translate(35.19 276.05) scale(1.04 1)">2002 <tspan class="cls-7" x="19.45" y="0">​</tspan></text></g><g class="cls-1"><text class="cls-6" transform="translate(35.19 293.81) scale(1.04 1)">2003 <tspan class="cls-7" x="19.45" y="0">​</tspan></text></g><g class="cls-1"><text class="cls-6" transform="translate(35.19 311.57) scale(1.04 1)">2004 <tspan class="cls-7" x="19.45" y="0">​</tspan></text></g><g class="cls-1"><text class="cls-6" transform="translate(35.19 329.33) scale(1.04 1)">2005 <tspan class="cls-7" x="19.45" y="0">​</tspan></text></g><g class="cls-1"><text class="cls-6" transform="translate(35.19 347.09) scale(1.04 1)">2006 <tspan class="cls-7" x="19.45" y="0">​</tspan></text></g><g class="cls-1"><text class="cls-6" transform="translate(35.19 364.85) scale(1.04 1)">2007 <tspan class="cls-7" x="19.45" y="0">​</tspan></text></g><g class="cls-1"><text class="cls-6" transform="translate(35.19 382.61) scale(1.04 1)">2008 <tspan class="cls-7" x="19.45" y="0">​</tspan></text></g><g class="cls-1"><text class="cls-6" transform="translate(35.19 400.37) scale(1.04 1)">2009 <tspan class="cls-7" x="19.45" y="0">​</tspan></text></g><g class="cls-1"><text class="cls-6" transform="translate(35.19 418.14) scale(1.04 1)">2010 <tspan class="cls-7" x="19.45" y="0">​</tspan></text></g><g class="cls-1"><text class="cls-6" transform="translate(35.19 435.9) scale(1.04 1)">2011 <tspan class="cls-7" x="19.45" y="0">​</tspan></text></g><g class="cls-1"><text class="cls-6" transform="translate(35.19 453.66) scale(1.04 1)">2012 <tspan class="cls-7" x="19.45" y="0">​</tspan></text></g><g class="cls-1"><text class="cls-6" transform="translate(35.19 471.42) scale(1.04 1)">2013 <tspan class="cls-7" x="19.45" y="0">​</tspan></text></g><g class="cls-1"><text class="cls-6" transform="translate(35.19 489.18) scale(1.04 1)">2014 <tspan class="cls-7" x="19.45" y="0">​</tspan></text></g><g class="cls-1"><text class="cls-6" transform="translate(35.19 506.94) scale(1.04 1)">2015 <tspan class="cls-7" x="19.45" y="0">​</tspan></text></g><g class="cls-1"><text class="cls-6" transform="translate(35.19 524.7) scale(1.04 1)">2016 <tspan class="cls-7" x="19.45" y="0">​</tspan></text></g><g class="cls-1"><text class="cls-6" transform="translate(35.19 542.46) scale(1.04 1)">2017 <tspan class="cls-7" x="19.45" y="0">​</tspan></text></g><g class="cls-1"><text class="cls-6" transform="translate(35.19 560.23) scale(1.04 1)">2018 <tspan class="cls-7" x="19.45" y="0">​</tspan></text></g><g class="cls-1"><text class="cls-6" transform="translate(35.19 577.99) scale(1.04 1)">2019 <tspan class="cls-7" x="19.45" y="0">​</tspan></text></g><g class="cls-1"><text class="cls-6" transform="translate(35.19 595.75) scale(1.04 1)">2020 <tspan class="cls-7" x="19.45" y="0">​</tspan></text></g><g class="cls-1"><text class="cls-6" transform="translate(35.19 613.51) scale(1.04 1)">2021 <tspan class="cls-7" x="19.45" y="0">​</tspan></text></g><rect class="cls-4" x="254.11" y="602.3" width="81.14" height="14.8"/><rect class="cls-5" x="442.16" y="602.3" width="37.91" height="14.8"/><g class="cls-8"><line class="cls-9" x1="334.66" y1="88.7" x2="334.66" y2="91.2"/><line class="cls-10" x1="334.66" y1="96.18" x2="334.66" y2="611.31"/><line class="cls-9" x1="334.66" y1="613.8" x2="334.66" y2="616.3"/></g><g class="cls-8"><line class="cls-9" x1="509.14" y1="89.1" x2="509.14" y2="91.6"/><line class="cls-10" x1="509.14" y1="96.58" x2="509.14" y2="611.71"/><line class="cls-9" x1="509.14" y1="614.2" x2="509.14" y2="616.7"/></g><rect class="cls-3" x="66.06" y="602.3" width="178.05" height="14.8"/><g class="cls-8"><line class="cls-9" x1="155.38" y1="87.19" x2="155.38" y2="89.69"/><line class="cls-11" x1="155.38" y1="94.68" x2="155.38" y2="612.1"/><line class="cls-9" x1="155.38" y1="614.6" x2="155.38" y2="617.1"/></g><text class="cls-12" transform="translate(211.22 613.29)">1,264</text><text class="cls-12" transform="translate(456.77 613.29)">269</text><text class="cls-12" transform="translate(312.36 613.29)">576</text><text class="cls-13" transform="translate(82.99 77.8)"><tspan class="cls-14">R</tspan><tspan x="6.79" y="0">e</tspan><tspan class="cls-15" x="12.74" y="0">c</tspan><tspan class="cls-16" x="17.96" y="0">ov</tspan><tspan x="29.98" y="0">e</tspan><tspan class="cls-17" x="35.93" y="0">r</tspan><tspan x="40.32" y="0">y G</tspan><tspan class="cls-18" x="55.69" y="0">o</tspan><tspan x="62.03" y="0">al: 625 </tspan><tspan class="cls-19" x="96.96" y="0">p</tspan><tspan class="cls-20" x="103.45" y="0">ai</tspan><tspan class="cls-14" x="112.55" y="0">r</tspan><tspan x="116.59" y="0">s</tspan></text><text class="cls-13" transform="translate(315.53 77.66)">575 <tspan class="cls-18" x="20.32" y="0">p</tspan><tspan x="26.81" y="0">ai</tspan><tspan class="cls-14" x="35.9" y="0">r</tspan><tspan x="39.95" y="0">s</tspan></text><text class="cls-13" transform="translate(487.38 77.8)">400 <tspan class="cls-18" x="20.32" y="0">p</tspan><tspan x="26.81" y="0">ai</tspan><tspan class="cls-14" x="35.9" y="0">r</tspan><tspan x="39.95" y="0">s</tspan></text><g class="cls-1"><text class="cls-2" transform="translate(254.11 53.42)">N<tspan class="cls-21" x="8.83" y="0">Y</tspan><tspan x="14.63" y="0">-NJ</tspan></text></g><g class="cls-1"><text class="cls-2" transform="translate(442.16 53.59)">SOUTHERN</text></g></svg>